<?xml version="1.0" standalone="no"?>
<!DOCTYPE svg PUBLIC "-//W3C//DTD SVG 20010904//EN"
 "http://www.w3.org/TR/2001/REC-SVG-20010904/DTD/svg10.dtd">
<svg version="1.0" xmlns="http://www.w3.org/2000/svg"
 width="700.000000pt" height="700.000000pt" viewBox="0 0 700.000000 700.000000"
 preserveAspectRatio="xMidYMid meet">
<metadata>
Created by potrace 1.11, written by Peter Selinger 2001-2013
</metadata>
<g transform="translate(0.000000,700.000000) scale(0.100000,-0.100000)"
fill="#000000" stroke="none">
<path d="M3035 6989 c-1307 -64 -2386 -377 -2825 -818 -101 -102 -159 -189
-188 -281 -16 -51 -17 -210 -17 -2395 l0 -2340 22 -59 c38 -100 84 -167 183
-267 677 -681 2830 -1013 4695 -723 1120 174 1901 547 2068 990 l22 59 0 2340
c0 2185 -1 2344 -17 2395 -29 92 -87 179 -188 281 -501 503 -1833 835 -3325
827 -148 0 -342 -5 -430 -9z m2849 -2236 c-548 -566 -1045 -1076 -1103 -1136
l-106 -107 1133 -1133 c622 -622 1132 -1138 1132 -1145 0 -9 -124 -12 -584
-12 l-584 0 -1108 1141 c-610 627 -1110 1144 -1112 1148 -2 5 509 517 1135
1140 l1138 1131 528 0 528 0 -997 -1027z m-3649 992 c334 -51 594 -182 820
-410 206 -209 347 -475 417 -791 30 -137 33 -503 4 -634 -64 -295 -180 -514
-376 -711 -142 -142 -257 -216 -506 -325 -21 -8 3 -52 428 -794 247 -432 458
-802 469 -823 l19 -37 -454 0 -454 0 -645 1153 -645 1152 407 5 c390 6 409 7
476 29 122 40 204 89 285 171 153 154 223 332 222 565 -1 377 -240 648 -613
695 -51 6 -377 10 -845 10 l-762 0 -218 358 c-120 196 -220 370 -222 386 l-5
29 1049 -6 c873 -5 1066 -9 1149 -22z"/>
</g>
</svg>
