<?xml version="1.0" encoding="UTF-8" standalone="no"?>
<svg
   xmlns:dc="http://purl.org/dc/elements/1.1/"
   xmlns:cc="http://creativecommons.org/ns#"
   xmlns:rdf="http://www.w3.org/1999/02/22-rdf-syntax-ns#"
   xmlns:svg="http://www.w3.org/2000/svg"
   xmlns="http://www.w3.org/2000/svg"
   xmlns:sodipodi="http://sodipodi.sourceforge.net/DTD/sodipodi-0.dtd"
   xmlns:inkscape="http://www.inkscape.org/namespaces/inkscape"
   width="660"
   height="94"
   version="1.1"
   id="svg57"
   sodipodi:docname="logo.svg"
   inkscape:version="1.0.1 (3bc2e813f5, 2020-09-07)"
   inkscape:export-filename="C:\Users\renek\Documents\Programmieren\Homepage Neu\img\logo.png"
   inkscape:export-xdpi="96"
   inkscape:export-ydpi="96">
  <metadata
     id="metadata63">
    <rdf:RDF>
      <cc:Work
         rdf:about="">
        <dc:format>image/svg+xml</dc:format>
        <dc:type
           rdf:resource="http://purl.org/dc/dcmitype/StillImage" />
        <dc:title />
      </cc:Work>
    </rdf:RDF>
  </metadata>
  <defs
     id="defs61">
    <rect
       x="299.37506"
       y="273.38141"
       width="574.54913"
       height="130.86455"
       id="rect318" />
  </defs>
  <sodipodi:namedview
     pagecolor="#ffffff"
     bordercolor="#666666"
     borderopacity="1"
     objecttolerance="10"
     gridtolerance="10"
     guidetolerance="10"
     inkscape:pageopacity="0"
     inkscape:pageshadow="2"
     inkscape:window-width="1600"
     inkscape:window-height="877"
     id="namedview59"
     showgrid="false"
     inkscape:zoom="1.1156574"
     inkscape:cx="387.58748"
     inkscape:cy="70.62379"
     inkscape:window-x="-8"
     inkscape:window-y="-8"
     inkscape:window-maximized="1"
     inkscape:current-layer="layer2"
     inkscape:showpageshadow="false"
     inkscape:document-rotation="0" />
  <g
     inkscape:groupmode="layer"
     id="layer1"
     inkscape:label="background"
     style="display:none"
     sodipodi:insensitive="true">
    <g
       id="g49"
       transform="matrix(1.460177,0,0,0.2079646,1.460177,0.2079646)">
      <title
         id="title44">background</title>
      <rect
         fill="#000000"
         id="canvas_background"
         height="452"
         width="452"
         y="-1"
         x="-1" />
      <g
         display="none"
         id="canvasGrid">
        <rect
           fill="url(#gridpattern)"
           stroke-width="0"
           y="0"
           x="0"
           height="100%"
           width="100%"
           id="svg_4" />
      </g>
    </g>
  </g>
  <g
     inkscape:groupmode="layer"
     id="layer2"
     inkscape:label="logo"
     style="display:inline">
    <path
       style="fill:#000000;stroke:#000000;stroke-width:1px;stroke-linecap:butt;stroke-linejoin:miter;stroke-opacity:1"
       d="m 14.302873,249.84816 46.217431,0.22409 c 39.452927,0.15845 48.281116,55.06868 12.716427,66.55269 l 22.40832,38.5423 H 75.253481 L 45.002263,302.05953 h 14.730451 c 23.084037,0 24.648997,-35.18105 0.262529,-35.18105 H 24.83478 Z"
       id="path90"
       sodipodi:nodetypes="cccccccccc" />
    <path
       style="fill:#000000;stroke:#000000;stroke-width:1px;stroke-linecap:butt;stroke-linejoin:miter;stroke-opacity:1"
       d="M 150.37132,355.16724 97.765681,301.96986 151.63892,249.20577 h 23.60916 l -52.13029,52.76409 54.19015,53.23943 -26.93662,-0.0421"
       id="path104"
       sodipodi:nodetypes="ccccccc" />
    <circle
       style="fill:none;stroke:#000000;stroke-width:1.05134"
       id="path81-5"
       cx="95.388916"
       cy="302.76212"
       r="90" />
    <path
       id="path104-0"
       style="fill:#000000;stroke:none;stroke-width:0.994475px;stroke-linecap:butt;stroke-linejoin:miter;stroke-opacity:1"
       d="m 609.47697,215.91978 a 89.502762,89.502764 0 0 0 -72.7074,37.54727 l 38.83114,0.18646 c 39.23496,0.15758 48.01475,54.76447 12.64654,66.18503 l 22.2844,38.33003 h -20.27797 l -30.08482,-52.81401 h 14.64909 c 22.9565,0 24.51396,-34.98726 0.26222,-34.98726 h -34.96784 l -7.00795,-11.33158 a 89.502762,89.502764 0 0 0 -12.95926,46.38683 89.502762,89.502764 0 0 0 89.50277,89.50275 89.502762,89.502764 0 0 0 72.2898,-36.73148 l -16.98183,-0.0253 -52.31483,-52.90335 53.5754,-52.47217 h 15.8242 a 89.502762,89.502764 0 0 0 -72.39274,-36.87327 89.502762,89.502764 0 0 0 -0.17092,0 z m 75.68693,41.46106 -47.31138,47.88438 47.9776,47.13462 a 89.502762,89.502764 0 0 0 13.32053,-46.97729 89.502762,89.502764 0 0 0 -13.98675,-48.04171 z" />
    <text
       xml:space="preserve"
       id="text316"
       style="font-style:normal;font-weight:normal;font-size:72px;line-height:1.25;font-family:sans-serif;white-space:pre;shape-inside:url(#rect318);fill:#000000;fill-opacity:1;stroke:none;"
       transform="matrix(1.116117,0,0,1,-182.71591,-287.5795)"><tspan
         x="299.375"
         y="339.54492"><tspan
           style="font-style:normal;font-variant:normal;font-weight:300;font-stretch:normal;font-size:72px;font-family:Bahnschrift;-inkscape-font-specification:'Bahnschrift Light';fill:#ffffff">ENGINEERING</tspan></tspan></text>
    <text
       xml:space="preserve"
       style="font-style:normal;font-weight:normal;font-size:40px;line-height:1.25;font-family:sans-serif;fill:#000000;fill-opacity:1;stroke:none"
       x="525.25085"
       y="314.61273"
       id="text324"><tspan
         sodipodi:role="line"
         id="tspan322"
         x="525.25085"
         y="314.61273" /></text>
    <text
       xml:space="preserve"
       style="font-style:normal;font-weight:normal;font-size:32.6013px;line-height:1.25;font-family:sans-serif;fill:#ffffff;fill-opacity:1;stroke:none;stroke-width:0.997999"
       x="154.83069"
       y="93.440269"
       id="text328"
       transform="scale(0.99799873,1.0020053)"><tspan
         sodipodi:role="line"
         id="tspan326"
         x="154.83069"
         y="93.440269"
         style="font-style:normal;font-variant:normal;font-weight:normal;font-stretch:normal;font-size:32.6013px;font-family:Bahnschrift;-inkscape-font-specification:Bahnschrift;stroke-width:0.997999">INNOVATIV | EFFIZIENT | FLEXIBEL</tspan></text>
    <text
       xml:space="preserve"
       style="font-style:normal;font-weight:normal;font-size:40px;line-height:1.25;font-family:sans-serif;fill:#000000;fill-opacity:1;stroke:none"
       x="565.58582"
       y="247.38779"
       id="text332"><tspan
         sodipodi:role="line"
         id="tspan330"
         x="565.58582"
         y="247.38779" /></text>
    <path
       style="fill:#ffffff;stroke:#ffffff;stroke-width:0.883381px;stroke-linecap:butt;stroke-linejoin:miter;stroke-opacity:1"
       d="M 0.8667848,0.47272114 41.697679,0.67066278 C 76.552453,0.81062442 84.351741,49.313527 52.932033,59.457494 L 72.728718,93.502407 H 54.713736 L 27.988228,46.591688 h 13.013656 c 20.393634,0 21.776201,-31.075867 0.231931,-31.075867 H 10.171229 Z"
       id="path90-4"
       sodipodi:nodetypes="cccccccccc" />
    <path
       style="fill:#ffffff;stroke:#ffffff;stroke-width:0.877134px;stroke-linecap:butt;stroke-linejoin:miter;stroke-opacity:1"
       d="M 120.28346,93.485684 74.137534,46.828048 121.3954,0.55043658 h 20.71007 L 96.376537,46.828048 143.91238,93.522543 120.28346,93.485684"
       id="path104-2"
       sodipodi:nodetypes="ccccccc" />
    <text
       xml:space="preserve"
       style="font-style:normal;font-weight:normal;font-size:40px;line-height:1.25;font-family:sans-serif;fill:#000000;fill-opacity:1;stroke:none"
       x="369.50702"
       y="-119.15493"
       id="text856"><tspan
         sodipodi:role="line"
         id="tspan854"
         x="369.50702"
         y="-119.15493" /></text>
  </g>
  <!-- Created with Method Draw - http://github.com/duopixel/Method-Draw/ -->
</svg>
